# xmcd
#
# Track frame offsets:
#	150
#	17687
#	35075
#	51522
#	75010
#	97987
#	118902
#	135465
#	152762
#	169680
#
# Disc length: 2539 seconds
#
# Revision: 2
# Processed by: cddbd v1.5.2PL0 Copyright (c) Steve Scherf et al.
# Submitted via: EasyCDDAExtractor 15.3.0.1
#
DISCID=7509e90a
DTITLE=Lourdes Robles - Definitivamente
DYEAR=1991
DGENRE=Latin
TTITLE0=Sola
TTITLE1=A Cara O Cruz
TTITLE2=Todo Me Habla De Ti
TTITLE3=Pero Me Acuerdo De Ti
TTITLE4=Sere Toda Para Ti (I'm Your Baby Tonight)
TTITLE5=Definitivamente
TTITLE6=Soñando Contigo
TTITLE7=Punto De Partida
TTITLE8=Confio En Ti
TTITLE9=Concierto Para Dos
EXTD=Sony, 1991\nCDZ-80693
EXTT0=
EXTT1=
EXTT2=
EXTT3=
EXTT4=
EXTT5=
EXTT6=
EXTT7=
EXTT8=
EXTT9=
PLAYORDER=
